<svg id="Layer_1" data-name="Layer 1" xmlns="http://www.w3.org/2000/svg" width="800" height="800" viewBox="0 0 800 800"><defs><style>.cls-1{fill:#066;}</style></defs><title>lille_blågrøn</title><path class="cls-1" d="M400.5,78,722.69,400.16,400,722.85,77.81,400.66,400.5,78m0-17L60.84,400.66,400,739.82,739.66,400.16,400.5,61Z"/><path class="cls-1" d="M400.25,252c-4.14,0-7.5-2.24-7.5-5V142c0-2.76,3.36-5,7.5-5s7.5,2.24,7.5,5V247C407.75,249.76,404.39,252,400.25,252Z"/><path class="cls-1" d="M257,386.09H152c-2.76,0-5-3.36-5-7.5s2.24-7.5,5-7.5H257c2.76,0,5,3.36,5,7.5S259.76,386.09,257,386.09Z"/><path class="cls-1" d="M257.16,260.1,294,296.9c1,1,4.06-.55,6.91-3.4s4.37-5.94,3.4-6.91l-36.8-36.8c-1-1-4.06.56-6.9,3.41S256.2,259.14,257.16,260.1Z"/><path class="cls-1" d="M539.27,255.1l-36.8,36.8c-1,1-4.06-.55-6.9-3.4s-4.37-5.94-3.41-6.91l36.8-36.8c1-1,4.06.56,6.91,3.41S540.24,254.14,539.27,255.1Z"/><path class="cls-1" d="M647,385.79H542c-2.76,0-5-3.36-5-7.5s2.24-7.5,5-7.5H647c2.76,0,5,3.35,5,7.5S649.76,385.79,647,385.79Z"/><path class="cls-1" d="M555.85,448.5c-125.08,46.81-139.75,33.38-181,71.39-27.75,25.59-18.23,69.41-5.43,88,1.86-6.25,7.79-16.68,18.59-25.8,20-16.91,21.76-14,68.83-42.74,1.83-1.12-21.41,30.44-42.21,50.13-14.89,14.09-30.89,23.32-39.5,24.94,27.68,25.19,94.83,16,130.86-30C543.41,536.77,560.72,446.67,555.85,448.5Z"/><path class="cls-1" d="M210.66,451.87c88.55,19.36,97.1,8.92,128.46,30.46,21.12,14.51,19,44.86,12.15,58.58-1.85-4-6.85-10.46-15-15.54-15.09-9.42-16-7.32-50.37-22.05-1.33-.58,17.33,18.38,33.21,29.59,11.36,8,23,12.68,28.94,12.93-16.16,19.6-62.15,19.91-90.8-7.47C227.55,510,207.21,451.12,210.66,451.87Z"/><path class="cls-1" d="M521.48,389c0,17.28-242,25.09-242,0a121,121,0,0,1,242,0Z"/></svg>
