<svg id="Layer_1" data-name="Layer 1" xmlns="http://www.w3.org/2000/svg" width="1566" height="800" viewBox="0 0 1566 800"><defs><style>.cls-1{fill:#2d2d2d;}</style></defs><title>stor_grå</title><polygon class="cls-1" points="799.41 54 538.72 314.69 551.75 314.69 799.41 67.03 1046.7 314.31 1059.72 314.31 799.41 54"/><path class="cls-1" d="M799.22,200.59c-3.18,0-5.75-1.71-5.75-3.83V116.17c0-2.12,2.57-3.84,5.75-3.84s5.76,1.72,5.76,3.84v80.59C805,198.88,802.4,200.59,799.22,200.59Z"/><path class="cls-1" d="M689.28,303.51H608.69c-2.12,0-3.84-2.58-3.84-5.75s1.72-5.76,3.84-5.76h80.59c2.12,0,3.84,2.58,3.84,5.76S691.4,303.51,689.28,303.51Z"/><path class="cls-1" d="M689.4,206.81l28.25,28.25c.74.74,3.11-.43,5.3-2.61s3.35-4.56,2.61-5.3L697.32,198.9c-.75-.74-3.12.43-5.31,2.61S688.66,206.07,689.4,206.81Z"/><path class="cls-1" d="M905.92,203l-28.24,28.24c-.74.74-3.12-.43-5.3-2.61s-3.36-4.56-2.61-5.3L898,195.06c.74-.74,3.12.43,5.3,2.61S906.67,202.23,905.92,203Z"/><path class="cls-1" d="M988.61,303.28H908c-2.12,0-3.84-2.58-3.84-5.76s1.72-5.76,3.84-5.76h80.59c2.12,0,3.83,2.58,3.83,5.76S990.73,303.28,988.61,303.28Z"/><path class="cls-1" d="M892.27,305.73c0,13.26-185.71,19.25-185.71,0a92.86,92.86,0,1,1,185.71,0Z"/><polygon class="cls-1" points="1046.7 473.31 799.03 720.98 551.75 473.69 538.72 473.69 799.03 734 1059.72 473.31 1046.7 473.31"/><path class="cls-1" d="M918.65,510.41c-96,35.93-107.26,25.62-138.89,54.79-21.3,19.64-14,53.27-4.17,67.53,1.43-4.8,6-12.81,14.27-19.81,15.37-13,16.7-10.76,52.83-32.8,1.4-.86-16.44,23.37-32.4,38.48-11.43,10.81-23.71,17.89-30.32,19.14,21.25,19.33,72.78,12.27,100.44-23C909.1,578.16,922.38,509,918.65,510.41Z"/><path class="cls-1" d="M653.71,513c68,14.85,74.53,6.84,98.6,23.38,16.2,11.13,14.55,34.43,9.32,45-1.42-3.08-5.25-8-11.5-11.92-11.58-7.23-12.26-5.62-38.65-16.93-1-.44,13.29,14.11,25.48,22.72,8.72,6.16,17.65,9.73,22.21,9.92-12.4,15-47.7,15.28-69.69-5.73C666.68,557.59,651.07,512.42,653.71,513Z"/><path class="cls-1" d="M306.35,437.25q-9.78,9.27-18.22,13.52a37.48,37.48,0,0,1-17,4.25,31,31,0,0,1-17.58-4.88,30.62,30.62,0,0,1-11.18-14.06q-3.86-9.18-3.86-21.68,0-15.54,8.16-32.08a123,123,0,0,1,51.9-53.08q16.22-8.4,31.55-8.4,24.6,0,24.61,21.58a32.33,32.33,0,0,1-4.55,16.31,35.93,35.93,0,0,1-12.06,12.7,29.15,29.15,0,0,1-15.91,4.78c-2.28,0-3.42-.81-3.42-2.44a12.43,12.43,0,0,1,1.17-3.32,47.61,47.61,0,0,0,4-11.23A80,80,0,0,0,325.49,346c0-5.47-.66-8.21-2-8.21q-4.59,0-12.84,6.55a65.25,65.25,0,0,0-13.52,14.25,90,90,0,0,0-8.84,16A114.12,114.12,0,0,0,282,393.4a74.29,74.29,0,0,0-2.29,17.38c0,5,1.07,9.13,3.22,12.36s4.95,4.83,8.4,4.83q8.88,0,20-22.56,3.51-6.24,4.73-8a11.52,11.52,0,0,1,3.46-3.07,68.41,68.41,0,0,1,15.28-6.79q9.22-3,14.29-3,6,0,6,6c0,.32-.2,1.75-.59,4.29a351,351,0,0,1-16.76,52.35q-9.87,23.73-19.14,33.79-4.31,4.59-12.7,7.62a50.53,50.53,0,0,1-17.19,3A47.07,47.07,0,0,1,274,489.2,39,39,0,0,1,261.72,483q-4.79-3.81-4.79-7.52,0-2.44,2.74-5.56a36.78,36.78,0,0,1,7.42-6.25q7.43-5,9.86-5t7.13,5.57a59.53,59.53,0,0,0,11.82,10.65,156.89,156.89,0,0,0,6.59-19.63A125.94,125.94,0,0,0,306.35,437.25Z"/><path class="cls-1" d="M395.7,425.43l-.39,1.95a41.69,41.69,0,0,1-.39,4.79,59.06,59.06,0,0,1-1.07,7.81,14.4,14.4,0,0,1-2.06,5,27,27,0,0,1-3.71,4.25q-7.12,6.54-14.35,6.54-5.87,0-8.64-4.29t-2.79-13.87a128,128,0,0,1,1.71-18.8,177.45,177.45,0,0,1,4.15-20.07l.78-2.54a10.87,10.87,0,0,1,.59-2.44q3.62-13.28,6.64-19.68a32.67,32.67,0,0,1,7.32-10.3,13.46,13.46,0,0,1,8.6-3q6.93,0,8.4,8.4a20.78,20.78,0,0,0,2.63-2.73,28.23,28.23,0,0,1,4.4-4.54,6,6,0,0,1,3.61-1.13q8.4,0,8.4,16.6A78.29,78.29,0,0,1,417.58,395a53.68,53.68,0,0,1-4.94,13.87q-3,5.37-5.9,5.37-3.23,0-3.23-12.21a54.08,54.08,0,0,0-.73-10.1,14,14,0,0,0-2.29-5.72q-2.94,5.47-3.81,25Q396,422.51,395.7,425.43Z"/><path class="cls-1" d="M462.6,422l30.18-26.94a27.88,27.88,0,0,0-4.3-6.11,49.91,49.91,0,0,0-7.13-5.91q12.79-11,24.23-11A16.54,16.54,0,0,1,517,376.43a10,10,0,0,0,.87-.69c.06-.07.42-.36,1.06-.89a25.67,25.67,0,0,1,3.47-2.4,4.88,4.88,0,0,1,2.2-.63,2.06,2.06,0,0,1,1.85,1.23,6.47,6.47,0,0,1,.69,3.19,6.7,6.7,0,0,1-.66,3.05,21.41,21.41,0,0,1-2.7,3.63l-1,1.18q4.32,6.64,4.33,18.93A52.92,52.92,0,0,1,523,423.08a49,49,0,0,1-10.83,16.73,64,64,0,0,1-19.34,12.29A55.78,55.78,0,0,1,471.19,457,62.85,62.85,0,0,1,455,454.78a62,62,0,0,1-14.9-6l-.78.49a3.42,3.42,0,0,1-1,.39q-5.17,2.93-7.23,2.93a2.42,2.42,0,0,1-1.37-.39,3,3,0,0,1-.58-1.17c0-1,1-2.44,2.93-4.2a10.91,10.91,0,0,0,2.63-2.83q-8.2-7.62-8.2-20.8A53,53,0,0,1,431.44,401,71.37,71.37,0,0,1,445.6,380.8q11.92-11.71,22.9-16.94a55,55,0,0,1,23.88-5.23c1.82,0,3.7.09,5.62.25s3.63.37,5.12.63a7.26,7.26,0,0,1,2.84.88,2.34,2.34,0,0,1,1,2.05c0,2.09-2.31,3.42-6.93,4a38.71,38.71,0,0,0-13.48,3.42,35.59,35.59,0,0,0-8.59,6.34q-2.64,2.84-4,4.49a31.36,31.36,0,0,0-2.58,3.67c-.82,1.33-1.62,2.75-2.4,4.24A56.56,56.56,0,0,0,462,415.56C462,416.61,462.21,418.75,462.6,422Zm34.33-17.23-31.56,26.46a20.06,20.06,0,0,0,6.58,6.17,16.83,16.83,0,0,0,8.63,2.38q7.13,0,12.54-8.17a33.24,33.24,0,0,0,5.41-18.82A26.24,26.24,0,0,0,496.93,404.78Z"/><path class="cls-1" d="M577.7,403.73l5.88-6.86q8.92-9.89,14.15-14.73a44.88,44.88,0,0,1,9.37-7,18.15,18.15,0,0,1,8.44-2.15c4.61,0,7.87,1.24,9.75,3.71s2.83,6.77,2.83,12.89q0,3.81-.78,11.23a158,158,0,0,0-1.17,18.56,103.27,103.27,0,0,0,1,15.82,44.63,44.63,0,0,0,2.05,7.42,22.07,22.07,0,0,1,1,4.78,2.89,2.89,0,0,1-1.17,2.45,27.68,27.68,0,0,1-8,4.59,23.93,23.93,0,0,1-8.39,1.95,15.34,15.34,0,0,1-10.11-3.81,24.41,24.41,0,0,1-7-10.55A43.71,43.71,0,0,1,593,426.8a90.86,90.86,0,0,1,1.17-13.38l-.39-.39q-4.2,4.68-6.79,7.42c-1.72,1.82-3.34,3.55-4.83,5.18q-10.95,12.5-18.56,22.56-2.93,3.9-5.37,6.83a11.3,11.3,0,0,1-8.2,3.61A12.62,12.62,0,0,1,539.84,454q-3.9-4.69-3.9-12.11A71.74,71.74,0,0,1,537,430.61q1.08-6.64,2.88-14.21t4.3-15.58q2.49-8,5.42-15.23,4.49-12,10.94-18.75a14.49,14.49,0,0,1,10.64-4.4q10.15,0,10.16,13.19,0,9.66-4,27.7Z"/><path class="cls-1" d="M656.35,360.78l.39-1.17q6.45-18.17,11.14-25.58a21.9,21.9,0,0,1,6.26-6.25q7.53-4.78,14.18-4.79a8.94,8.94,0,0,1,6,1.76,6.33,6.33,0,0,1,2.05,5.09q0,2.25-2.94,9.17a134,134,0,0,0-7.47,21.57,25.94,25.94,0,0,1,3.23.59c3.91.59,6.48,1.25,7.72,2s1.86,2.1,1.86,4.06a18.25,18.25,0,0,1-2.64,9.57,16,16,0,0,1-6.93,6.45c-2.14,1-5.62,1.63-10.44,1.95q-1.26,3.81-2.8,10.46-.87,5.85-1.93,16.21a47.2,47.2,0,0,0-.59,7.13q0,15.42,15,15.42h.88c1.17,0,1.75.19,1.75.58,0,1-1.1,2.8-3.32,5.28a43.6,43.6,0,0,1-7.32,6.54,40,40,0,0,1-9.38,4.69,28.5,28.5,0,0,1-9.2,1.75q-10.28,0-16.68-6.93T638.67,428a63.53,63.53,0,0,1,1.71-12.79q1.71-7.92,5.32-21.19c.39-1.57.81-3.21,1.27-4.94s.72-2.75.78-3.07c-2.6-.07-4.46-.62-5.56-1.66s-1.66-2.74-1.66-5.08a17.49,17.49,0,0,1,4.73-11.62A20.1,20.1,0,0,1,656.35,360.78Z"/><path class="cls-1" d="M735.74,459.42q5.76-.3,10.5-5.62A17.05,17.05,0,0,0,751,442.23a8.73,8.73,0,0,0-2.83-6.84q-3-3-13.57-5.95-15.52-4.5-20.22-10.06A14.84,14.84,0,0,1,710,408.63q0-11.22,8.15-22.46A64.82,64.82,0,0,1,739,367.77q12.7-7.18,25.59-7.18a24.4,24.4,0,0,1,11.72,2.93,23.68,23.68,0,0,1,8.69,7.76,18.53,18.53,0,0,1,3.22,10.5,22.69,22.69,0,0,1-3.51,11.52,33.22,33.22,0,0,1-8.84,9.91q-5.33,4-10.11,4A9.26,9.26,0,0,1,761,406c-1.33-.78-2-1.63-2-2.54a15.45,15.45,0,0,1,.78-4,59.94,59.94,0,0,0,2.15-14.65,20.36,20.36,0,0,0-3.71-11.62,29.42,29.42,0,0,0-6.25,5.26,32.23,32.23,0,0,0-5.76,9.76,28.13,28.13,0,0,0-2.25,10.53,8.91,8.91,0,0,0,1.62,5.61,12.28,12.28,0,0,0,5.28,3.57,84.85,84.85,0,0,0,11.08,3.23q12.41,3,17.48,5.86a28.14,28.14,0,0,1,3.61,2.83,14.67,14.67,0,0,1,3.71,10.36,26,26,0,0,1-4.2,13.63q-4.2,6.89-13,14.21a63.13,63.13,0,0,1-18.65,11.34,58.92,58.92,0,0,1-20.51,3.41q-10.85,0-17-4.29a13.52,13.52,0,0,1-6.2-11.72q0-5.28,4.1-10.69a32.48,32.48,0,0,1,10.2-8.84,24.4,24.4,0,0,1,12-3.42q4.4,0,4.39,1.95a8,8,0,0,1-1.27,3.23q-3.81,6.83-3.81,12.59A12.21,12.21,0,0,0,735.74,459.42Z"/><path class="cls-1" d="M863.18,426.8v.39l-.39-.39a181.93,181.93,0,0,1-16.65,17.43,73.59,73.59,0,0,1-14,10.21,25.39,25.39,0,0,1-11.77,3.41q-10.93,0-18.07-7.32T795.21,432q0-6.93,3.52-16.4A86.67,86.67,0,0,1,808.4,397a95,95,0,0,1,25.78-25.19q16-10.65,30.86-10.65,12.5,0,20.55,5.13t8.06,12.94q0,5.76-4,12.21c3.51,0,5.73.37,6.64,1.12s1.36,2.49,1.36,5.22c0-.25-.16,1.08-.48,4q-.58,9.66-.59,18.07c0,2.92,0,5.14.1,6.64s.19,3.22.39,5.17.39,3.52.58,4.69a46.07,46.07,0,0,0,2.54,9.08A45.53,45.53,0,0,1,889,453.9,24.18,24.18,0,0,1,878,456.58q-15,0-15-25.19A42,42,0,0,1,863.18,426.8ZM869,404.44l-1.85.58q-7,2-10.16,2-3.81,0-3.81-2a12.75,12.75,0,0,1,1.56-3.61q5.47-8.3,5.47-15.63a19.58,19.58,0,0,0-1.46-7.66c-1-2.31-2-3.47-3.23-3.47s-2.63,1.11-4.78,3.32a92.07,92.07,0,0,0-14.4,20.22q-5.32,10.35-5.33,18.45a16.55,16.55,0,0,0,2.2,8.89q2.19,3.51,5.52,3.51,2.84,0,10.59-6.05a173.69,173.69,0,0,0,17.43-16l2.64-2.14Z"/><path class="cls-1" d="M971.78,428.46l-2.64,2a9.72,9.72,0,0,1-.93.78l-1.61,1.27Q949.71,445.65,940.09,451t-16.75,5.37a15.83,15.83,0,0,1-12.75-5.76q-4.83-5.76-4.83-15.43,0-12,6.79-24.86a93,93,0,0,1,17.92-23.58,95.48,95.48,0,0,1,24.41-17.24q13.27-6.5,25.68-6.49,12.21,0,18.61,4.2t6.39,12.6q0,7-5.56,17.38,4,.29,5.86,2.49c1.23,1.46,1.85,3.76,1.85,6.88q0,7.62-3.12,21.24A181.29,181.29,0,0,1,997,453a74.56,74.56,0,0,1-15.62,25.29,69.77,69.77,0,0,1-19.14,13.92Q950.78,498,942.58,498a16.67,16.67,0,0,1-12.21-5.47,17.14,17.14,0,0,1-5.37-12.3,22.14,22.14,0,0,1,2.34-9.52,27.93,27.93,0,0,1,6.06-8.45q7.61-7.72,22.36-14.65a10.52,10.52,0,0,1,4.2-1.37,1.5,1.5,0,0,1,1.07.49,1.48,1.48,0,0,1,.49,1.07,7,7,0,0,1-1.17,2.64,56.33,56.33,0,0,0-5.18,12.75,49.63,49.63,0,0,0-2.24,13.42q0,6.64,2.05,6.64c.71,0,1.61-.79,2.68-2.39a31.07,31.07,0,0,0,2.89-5.42q8.3-21.09,10.62-39.07C971.37,434.61,971.57,432,971.78,428.46Zm5-20.8v.39l-.39-.39a5.21,5.21,0,0,1-1.57.19,45.94,45.94,0,0,1-4.68.2q-5,0-5-1.86a3.85,3.85,0,0,1,1.27-2.34,36.79,36.79,0,0,0,6.4-11,40.23,40.23,0,0,0,3-12.4A13.82,13.82,0,0,1,976,378a6.7,6.7,0,0,0,.15-.68,3.52,3.52,0,0,0,0-.49c0-.91-.62-1.37-1.86-1.37q-3.79,0-11.71,8.2a75,75,0,0,0-9.38,12.5,72.75,72.75,0,0,0-6.84,14.46,41.32,41.32,0,0,0-2.44,13q0,5.66,2.84,5.66t13.76-9.18Q965.54,415.77,976.76,407.66Z"/><path class="cls-1" d="M1050.49,428q1.07,5.86,7.61,5.86,7.34,0,19.05-8.59,6.82-5,9.18-5a10.23,10.23,0,0,1,5.46,1.56c1.7,1,2.54,2.11,2.54,3.22s-.94,2.7-2.83,4.59a110.16,110.16,0,0,1-24.9,18.31,72.72,72.72,0,0,1-12.5,5.18A38.73,38.73,0,0,1,1043,455q-12.21,0-19.53-7t-7.33-18.6a62.35,62.35,0,0,1,3.86-20.07,90.4,90.4,0,0,1,10.4-20.95,70.33,70.33,0,0,1,18.94-19q13.88-9.18,26.57-9.18,9.18,0,14.4,5.81t5.23,16a38,38,0,0,1-4.15,16.51A59.38,59.38,0,0,1,1079.1,415a64.38,64.38,0,0,1-13,10.35q-6.39,3.72-11.18,3.71A10,10,0,0,1,1050.49,428Zm-.2-3.12a29.31,29.31,0,0,0,6.84-6.06,46.93,46.93,0,0,0,8-14.55,60.59,60.59,0,0,0,3.52-12,66,66,0,0,0,1.27-12.4q0-5.37-2.25-5.37-3.12,0-9.57,13.76a120.44,120.44,0,0,0-6.2,16.56,52.47,52.47,0,0,0-2.39,14.21A31.65,31.65,0,0,0,1050.29,424.85Z"/><path class="cls-1" d="M1135.06,425.43l-.39,1.95a41.69,41.69,0,0,1-.39,4.79,58.84,58.84,0,0,1-1.08,7.81,14.4,14.4,0,0,1-2,5,27.52,27.52,0,0,1-3.71,4.25q-7.12,6.54-14.36,6.54-5.85,0-8.64-4.29t-2.78-13.87a128,128,0,0,1,1.71-18.8,177.45,177.45,0,0,1,4.15-20.07l.78-2.54a10.64,10.64,0,0,1,.58-2.44q3.61-13.28,6.65-19.68a32.36,32.36,0,0,1,7.32-10.3,13.44,13.44,0,0,1,8.59-3q6.94,0,8.4,8.4a21.5,21.5,0,0,0,2.64-2.73,28.29,28.29,0,0,1,4.39-4.54,6,6,0,0,1,3.62-1.13q8.38,0,8.39,16.6a78.29,78.29,0,0,1-2,17.58,53.33,53.33,0,0,1-4.93,13.87q-3,5.37-5.91,5.37-3.22,0-3.22-12.21a54.08,54.08,0,0,0-.73-10.1,14,14,0,0,0-2.3-5.72q-2.92,5.47-3.81,25Q1135.36,422.51,1135.06,425.43Z"/><path class="cls-1" d="M1181.13,456.19a12.16,12.16,0,0,1-8-4,23.3,23.3,0,0,1-5.12-8.45A38.3,38.3,0,0,1,1166.5,432q0-16.11,6-36.37t13.62-29.35a10.13,10.13,0,0,1,8.39-3.81q5.67,0,9.13,5.18t3.47,13.57a141.06,141.06,0,0,1-3.57,29.05,270.85,270.85,0,0,1-10,34.62q-2.54,7.23-6.24,9.77a11.16,11.16,0,0,1-6,1.56Zm11.74-98.14q-9.18-.3-9.18-11a35.62,35.62,0,0,1,2.69-12.45q2.68-7.08,6.1-10.5a11.15,11.15,0,0,1,3.56-2.63,11.81,11.81,0,0,1,4.64-.78c3.26,0,5.65.79,7.18,2.39s2.29,4.25,2.29,8a36,36,0,0,1-2.39,13.13,27.4,27.4,0,0,1-6.39,10.06q-4,3.85-8.21,3.86Z"/><path class="cls-1" d="M1250.68,428q1.08,5.86,7.62,5.86,7.32,0,19-8.59,6.84-5,9.18-5a10.27,10.27,0,0,1,5.47,1.56c1.69,1,2.54,2.11,2.54,3.22s-1,2.7-2.83,4.59a110.51,110.51,0,0,1-24.91,18.31,72.4,72.4,0,0,1-12.5,5.18,38.62,38.62,0,0,1-11.13,1.9q-12.21,0-19.53-7t-7.32-18.6a62.31,62.31,0,0,1,3.85-20.07,90.8,90.8,0,0,1,10.4-20.95,70.36,70.36,0,0,1,19-19q13.86-9.18,26.56-9.18,9.18,0,14.41,5.81t5.22,16a37.89,37.89,0,0,1-4.15,16.51,59.19,59.19,0,0,1-12.26,16.5,64.35,64.35,0,0,1-13,10.35q-6.4,3.72-11.18,3.71A10.09,10.09,0,0,1,1250.68,428Zm-.19-3.12a29.24,29.24,0,0,0,6.83-6.06,47.16,47.16,0,0,0,8-14.55,60.59,60.59,0,0,0,3.52-12,66.82,66.82,0,0,0,1.27-12.4q0-5.37-2.25-5.37-3.12,0-9.57,13.76a119.16,119.16,0,0,0-6.2,16.56,52.08,52.08,0,0,0-2.39,14.21A30.81,30.81,0,0,0,1250.49,424.85Z"/><path class="cls-1" d="M1320.7,360.78l.39-1.17q6.45-18.17,11.15-25.58a21.77,21.77,0,0,1,6.26-6.25Q1346,323,1352.67,323a9,9,0,0,1,6,1.76,6.36,6.36,0,0,1,2,5.09q0,2.25-3,9.17a135,135,0,0,0-7.47,21.57,25.61,25.61,0,0,1,3.23.59c3.91.59,6.49,1.25,7.73,2s1.85,2.1,1.85,4.06a18.24,18.24,0,0,1-2.63,9.57,16.14,16.14,0,0,1-6.93,6.45c-2.15,1-5.63,1.63-10.44,1.95q-1.26,3.81-2.8,10.46-.87,5.85-1.93,16.21a45.94,45.94,0,0,0-.59,7.13q0,15.42,14.94,15.42h.88c1.17,0,1.76.19,1.76.58q0,1.56-3.32,5.28a44.06,44.06,0,0,1-7.33,6.54,39.77,39.77,0,0,1-9.38,4.69,28.45,28.45,0,0,1-9.19,1.75q-10.27,0-16.69-6.93T1303,428a63.39,63.39,0,0,1,1.7-12.79q1.71-7.92,5.33-21.19c.39-1.57.81-3.21,1.27-4.94s.71-2.75.78-3.07c-2.61-.07-4.46-.62-5.57-1.66s-1.66-2.74-1.66-5.08a17.5,17.5,0,0,1,4.74-11.62A20.08,20.08,0,0,1,1320.7,360.78Z"/></svg>
