<svg id="Layer_1" data-name="Layer 1" xmlns="http://www.w3.org/2000/svg" width="678.82" height="339.66" viewBox="0 0 678.82 339.66"><defs><style>.cls-1{fill:#fff;}</style></defs><title>hvid_bund</title><polygon class="cls-1" points="661.85 0 339.16 322.69 16.97 0.5 0 0.5 339.16 339.66 678.82 0 661.85 0"/><path class="cls-1" d="M495,48.34c-125.08,46.81-139.75,33.38-181,71.39-27.75,25.59-18.23,69.41-5.43,88,1.86-6.25,7.79-16.68,18.59-25.8,20-16.91,21.76-14,68.83-42.74,1.83-1.12-21.41,30.44-42.21,50.13-14.89,14.09-30.89,23.32-39.5,24.94,27.68,25.19,94.83,16,130.86-30C482.57,136.61,499.88,46.52,495,48.34Z"/><path class="cls-1" d="M149.82,51.71c88.55,19.36,97.1,8.92,128.46,30.46,21.12,14.51,19,44.86,12.15,58.58-1.85-4-6.85-10.46-15-15.54-15.09-9.42-16-7.32-50.37-22-1.33-.58,17.33,18.38,33.21,29.59,11.36,8,23,12.68,28.94,12.93-16.16,19.6-62.15,19.91-90.8-7.47C166.71,109.81,146.37,51,149.82,51.71Z"/></svg>
