<svg id="Layer_1" data-name="Layer 1" xmlns="http://www.w3.org/2000/svg" width="678.82" height="678.82" viewBox="0 0 678.82 678.82"><defs><style>.cls-1{fill:#deede0;}</style></defs><title>lille_lys</title><path class="cls-1" d="M339.66,17,661.85,339.16,339.16,661.85,17,339.66,339.66,17m0-17L0,339.66,339.16,678.82,678.82,339.16,339.66,0Z"/><path class="cls-1" d="M339.41,191c-4.14,0-7.5-2.24-7.5-5V81c0-2.76,3.36-5,7.5-5s7.5,2.24,7.5,5V186C346.91,188.76,343.55,191,339.41,191Z"/><path class="cls-1" d="M196.16,325.09h-105c-2.76,0-5-3.36-5-7.5s2.24-7.5,5-7.5h105c2.76,0,5,3.36,5,7.5S198.92,325.09,196.16,325.09Z"/><path class="cls-1" d="M196.32,199.1l36.8,36.8c1,1,4.06-.55,6.91-3.4s4.37-5.94,3.4-6.91l-36.8-36.8c-1-1-4.06.56-6.9,3.41S195.36,198.14,196.32,199.1Z"/><path class="cls-1" d="M478.43,194.1l-36.8,36.8c-1,1-4.06-.55-6.9-3.4s-4.37-5.94-3.41-6.91l36.8-36.8c1-1,4.06.56,6.91,3.41S479.4,193.14,478.43,194.1Z"/><path class="cls-1" d="M586.16,324.79h-105c-2.76,0-5-3.36-5-7.5s2.24-7.5,5-7.5h105c2.76,0,5,3.35,5,7.5S588.92,324.79,586.16,324.79Z"/><path class="cls-1" d="M495,387.5c-125.08,46.81-139.75,33.38-181,71.39-27.75,25.59-18.23,69.41-5.43,88,1.86-6.25,7.79-16.68,18.59-25.8,20-16.91,21.76-14,68.83-42.74,1.83-1.12-21.41,30.44-42.21,50.13-14.89,14.09-30.89,23.32-39.5,24.94,27.68,25.19,94.83,16,130.86-30C482.57,475.77,499.88,385.67,495,387.5Z"/><path class="cls-1" d="M149.82,390.87c88.55,19.36,97.1,8.92,128.46,30.46,21.12,14.51,19,44.86,12.15,58.58-1.85-4-6.85-10.46-15-15.54-15.09-9.42-16-7.32-50.37-22.05-1.33-.58,17.33,18.38,33.21,29.59,11.36,8,23,12.68,28.94,12.93-16.16,19.6-62.15,19.91-90.8-7.47C166.71,449,146.37,390.12,149.82,390.87Z"/><path class="cls-1" d="M460.64,328c0,17.28-242,25.09-242,0a121,121,0,1,1,242,0Z"/></svg>
