<svg id="Layer_1" data-name="Layer 1" xmlns="http://www.w3.org/2000/svg" width="678.82" height="344" viewBox="0 0 678.82 344"><defs><style>.cls-1{fill:#006e64;}</style></defs><title>blaagroen_top</title><polygon class="cls-1" points="16.97 339.66 339.66 16.97 661.85 339.16 678.82 339.16 339.66 0 0 339.66 16.97 339.66"/><path class="cls-1" d="M339.41,191c-4.14,0-7.5-2.24-7.5-5V81c0-2.76,3.36-5,7.5-5s7.5,2.24,7.5,5V186C346.91,188.76,343.55,191,339.41,191Z"/><path class="cls-1" d="M196.16,325.09h-105c-2.76,0-5-3.36-5-7.5s2.24-7.5,5-7.5h105c2.76,0,5,3.36,5,7.5S198.92,325.09,196.16,325.09Z"/><path class="cls-1" d="M196.32,199.1l36.8,36.8c1,1,4.06-.55,6.91-3.4s4.37-5.94,3.4-6.91l-36.8-36.8c-1-1-4.06.56-6.9,3.41S195.36,198.14,196.32,199.1Z"/><path class="cls-1" d="M478.43,194.1l-36.8,36.8c-1,1-4.06-.55-6.9-3.4s-4.37-5.94-3.41-6.91l36.8-36.8c1-1,4.06.56,6.91,3.41S479.4,193.14,478.43,194.1Z"/><path class="cls-1" d="M586.16,324.79h-105c-2.76,0-5-3.36-5-7.5s2.24-7.5,5-7.5h105c2.76,0,5,3.35,5,7.5S588.92,324.79,586.16,324.79Z"/><path class="cls-1" d="M460.64,328c0,17.28-242,25.09-242,0a121,121,0,1,1,242,0Z"/></svg>
