<?xml version="1.0" encoding="utf-8"?>
<!-- Generator: Adobe Illustrator 23.0.6, SVG Export Plug-In . SVG Version: 6.00 Build 0)  -->
<svg version="1.1" id="Layer_1" xmlns="http://www.w3.org/2000/svg" xmlns:xlink="http://www.w3.org/1999/xlink" x="0px" y="0px"
	 viewBox="0 0 678.8 678.8" style="enable-background:new 0 0 678.8 678.8;" xml:space="preserve">
<title>lille_hvid</title>
<path d="M339.7,17l322.2,322.2L339.2,661.8L17,339.7L339.7,17 M339.7,0L0,339.7l339.2,339.2l339.7-339.7L339.7,0z"/>
<path d="M339.4,191c-4.1,0-7.5-2.2-7.5-5V81c0-2.8,3.4-5,7.5-5s7.5,2.2,7.5,5v105C346.9,188.8,343.5,191,339.4,191z"/>
<path d="M196.2,325.1h-105c-2.8,0-5-3.4-5-7.5s2.2-7.5,5-7.5h105c2.8,0,5,3.4,5,7.5S198.9,325.1,196.2,325.1z"/>
<path d="M196.3,199.1l36.8,36.8c1,1,4.1-0.6,6.9-3.4s4.4-5.9,3.4-6.9l-36.8-36.8c-1-1-4.1,0.6-6.9,3.4S195.4,198.1,196.3,199.1z"/>
<path d="M478.4,194.1l-36.8,36.8c-1,1-4.1-0.6-6.9-3.4s-4.4-5.9-3.4-6.9l36.8-36.8c1-1,4.1,0.6,6.9,3.4S479.4,193.1,478.4,194.1z"/>
<path d="M586.2,324.8h-105c-2.8,0-5-3.4-5-7.5s2.2-7.5,5-7.5h105c2.8,0,5,3.4,5,7.5S588.9,324.8,586.2,324.8z"/>
<path d="M495,387.5c-125.1,46.8-139.8,33.4-181,71.4c-27.8,25.6-18.2,69.4-5.4,88c1.9-6.2,7.8-16.7,18.6-25.8
	c20-16.9,21.8-14,68.8-42.7c1.8-1.1-21.4,30.4-42.2,50.1c-14.9,14.1-30.9,23.3-39.5,24.9c27.7,25.2,94.8,16,130.9-30
	C482.6,475.8,499.9,385.7,495,387.5z"/>
<path d="M149.8,390.9c88.6,19.4,97.1,8.9,128.5,30.5c21.1,14.5,19,44.9,12.1,58.6c-1.9-4-6.9-10.5-15-15.5c-15.1-9.4-16-7.3-50.4-22
	c-1.3-0.6,17.3,18.4,33.2,29.6c11.4,8,23,12.7,28.9,12.9c-16.2,19.6-62.1,19.9-90.8-7.5C166.7,449,146.4,390.1,149.8,390.9z"/>
<path d="M460.6,328c0,17.3-242,25.1-242,0c0-66.8,54.2-121,121-121S460.6,261.2,460.6,328z"/>
</svg>
