<?xml version="1.0" encoding="utf-8"?>
<!-- Generator: Adobe Illustrator 23.0.6, SVG Export Plug-In . SVG Version: 6.00 Build 0)  -->
<svg version="1.1" id="Capa_1" xmlns="http://www.w3.org/2000/svg" xmlns:xlink="http://www.w3.org/1999/xlink" x="0px" y="0px"
	 viewBox="0 0 979.2 979.2" style="enable-background:new 0 0 979.2 979.2;" xml:space="preserve">
<g>
	<path d="M749.5,190.2c0-30.5-12.1-59.8-33.7-81.4l-75.1-75.1C619.1,12.1,589.8,0,559.3,0H289.7c-33.1,0-60,26.9-60,60v192.7h519.9
		v-62.5H749.5z"/>
	<path d="M62.4,822.1h103V613.7h64.3h519.9h64.3v208.4h103c33.1,0,60-26.9,60-60V382.6c0-33.1-26.9-60-60-60H749.5H229.7H62.4
		c-33.1,0-60,26.9-60,60v379.5C2.4,795.3,29.2,822.1,62.4,822.1z M157.3,404.6c34.8,0,63,28.2,63,63s-28.2,63-63,63s-63-28.2-63-63
		S122.5,404.6,157.3,404.6z"/>
	<path d="M753.9,949.3v-57.1v-35v-35V673.7h-12.5H237.8h-12.5v148.4v35v35v57.1c0,16.5,13.5,30,30,30h468.6
		C740.4,979.3,753.9,965.8,753.9,949.3z M359.6,796.5h260c15.1,0,27.6,11.1,29.7,25.6c0.2,1.4,0.3,2.9,0.3,4.4c0,16.6-13.4,30-30,30
		h-260c-16.6,0-30-13.4-30-30c0-1.5,0.1-2.9,0.3-4.4C332,807.6,344.5,796.5,359.6,796.5z"/>
</g>
</svg>
